<?xml version="1.0" encoding="UTF-8" standalone="no"?>
<svg
   xmlns:dc="http://purl.org/dc/elements/1.1/"
   xmlns:cc="http://creativecommons.org/ns#"
   xmlns:rdf="http://www.w3.org/1999/02/22-rdf-syntax-ns#"
   xmlns:svg="http://www.w3.org/2000/svg"
   xmlns="http://www.w3.org/2000/svg"
   xmlns:sodipodi="http://sodipodi.sourceforge.net/DTD/sodipodi-0.dtd"
   xmlns:inkscape="http://www.inkscape.org/namespaces/inkscape"
   width="870px"
   height="400px"
   viewBox="0 0 870 400"
   version="1.1"
   id="SVGRoot"
   sodipodi:docname="A_T_Logo.svg"
   inkscape:version="1.0.1 (3bc2e813f5, 2020-09-07)">
  <defs
     id="defs29">
    <rect
       x="177.14285"
       y="184.28571"
       width="254.28571"
       height="135.71429"
       id="rect50" />
    <rect
       x="177.14285"
       y="184.28571"
       width="254.28571"
       height="135.71429"
       id="rect26" />
  </defs>
  <sodipodi:namedview
     id="base"
     pagecolor="#ffffff"
     bordercolor="#666666"
     borderopacity="1.0"
     inkscape:pageopacity="0.0"
     inkscape:pageshadow="2"
     inkscape:zoom="0.7"
     inkscape:cx="421.90012"
     inkscape:cy="337.39817"
     inkscape:document-units="px"
     inkscape:current-layer="layer1"
     inkscape:document-rotation="0"
     showgrid="false"
     inkscape:window-width="1920"
     inkscape:window-height="1057"
     inkscape:window-x="-8"
     inkscape:window-y="-8"
     inkscape:window-maximized="1" />
  <metadata
     id="metadata32">
    <rdf:RDF>
      <cc:Work
         rdf:about="">
        <dc:format>image/svg+xml</dc:format>
        <dc:type
           rdf:resource="http://purl.org/dc/dcmitype/StillImage" />
        <dc:title></dc:title>
      </cc:Work>
    </rdf:RDF>
  </metadata>
  <g
     inkscape:label="Capa 1"
     inkscape:groupmode="layer"
     id="layer1">
    <text
       xml:space="preserve"
       style="font-size:133.333px;line-height:0;font-family:sans-serif;letter-spacing:0px;stroke-width:0.999999"
       x="443.57407"
       y="193.85623"
       id="text3207"><tspan
         sodipodi:role="line"
         id="tspan3205"
         x="443.57407"
         y="193.85623"
         style="font-style:normal;font-variant:normal;font-weight:normal;font-stretch:normal;font-size:133.333px;line-height:2.65;font-family:Blanka;-inkscape-font-specification:Blanka;stroke-width:0.999999">RIAK</tspan></text>
    <path
       style="fill:#000000;fill-opacity:1;stroke:#000000;stroke-width:1.5737px;stroke-linecap:butt;stroke-linejoin:miter;stroke-opacity:1"
       d="m 752.94635,87.705066 h 71.31077 l -8e-5,17.931324 h -54.87579 v 24.11453 h 52.53354 v 17.93127 l -52.43391,-0.61833 v 30.29772 l 55.89766,0.61837 0.0994,14.8397 h -73.5535 z"
       id="path3223"
       sodipodi:nodetypes="ccccccccccccc" />
    <path
       style="fill:#000000;fill-opacity:1;fill-rule:evenodd;stroke:#000000;stroke-width:0.995059px;stroke-linecap:butt;stroke-linejoin:miter;stroke-opacity:1"
       d="m 319.81715,193.41874 23.61343,-0.12964 31.63199,-36.53646 37.4609,36.56141 20.46565,-0.25021 0.14475,-22.62643 c -6.8053,-3.22095 -11.36296,1.67365 -20.03361,-1.81705 l 0.14929,-56.40132 -25.85129,30.11584 25.702,26.28548 c 6.91672,1.53347 12.03232,0.3171 20.03361,1.81705 l 0.60522,-82.661814 H 413.10672 L 319.81715,193.41867"
       id="path3893"
       sodipodi:nodetypes="cccccccccccccc" />
    <text
       xml:space="preserve"
       id="text48"
       style="font-size:38.751px;line-height:1.25;font-family:sans-serif;letter-spacing:0px;white-space:pre;shape-inside:url(#rect50);"
       transform="matrix(2.6083933,0,0,2.9217744,11.225319,-333.73763)"><tspan
         x="177.14258"
         y="220.12983"><tspan
           style="font-style:normal;font-variant:normal;font-weight:normal;font-stretch:normal;font-size:38.751px;font-family:Ailerons;-inkscape-font-specification:Ailerons">TECH</tspan></tspan></text>
    <path
       style="fill:#4ea7d4;fill-opacity:1;stroke:#4ea7d4;stroke-width:0.808122px;stroke-linecap:butt;stroke-linejoin:miter;stroke-opacity:1"
       d="m 69.368591,239.03469 c 84.762939,82.93212 84.762939,82.93212 84.762939,82.93212 v -46.0734 L 102.37724,224.6117 101.56221,106.42338 68.553562,76.375488 Z"
       id="path75"
       sodipodi:nodetypes="ccccccc" />
    <path
       style="fill:none;stroke-width:0.404063"
       d="m 127.86396,295.83677 c -13.86702,-13.59374 -24.95066,-24.3711 -24.63029,-23.94967 0.50923,0.66993 0.50561,0.74152 -0.0285,0.56932 -0.3362,-0.10842 -0.83174,-0.62813 -1.10119,-1.15511 -0.26944,-0.52698 -7.662673,-8.00558 -16.429392,-16.61903 l -15.939484,-15.6609 -0.141758,-2.37963 c -0.078,-1.3088 -0.268429,-37.26522 -0.423236,-79.90317 -0.274836,-75.700287 -0.263378,-77.534105 0.487337,-77.973133 0.673556,-0.393915 1.726426,0.41741 8.498586,6.548891 4.251391,3.849191 8.830082,8.019427 10.174879,9.267207 1.344797,1.24778 4.765158,4.391125 7.600823,6.985235 l 5.155725,4.71651 0.23657,2.69173 c 0.13012,1.48047 0.34602,28.11224 0.47979,59.18175 l 0.24323,56.49003 25.84494,25.47946 25.84495,25.47941 v 22.27305 c 0,12.25017 -0.14848,22.36324 -0.32995,22.47351 -0.18146,0.11023 -11.67569,-10.9217 -25.54273,-24.51546 z"
       id="path77" />
    <ellipse
       style="mix-blend-mode:normal;fill:none;fill-opacity:1;fill-rule:nonzero;stroke:#4ea7d4;stroke-width:21.5653;stroke-miterlimit:4;stroke-dasharray:none;stroke-opacity:1"
       id="path133"
       cx="181.02734"
       cy="168.52234"
       rx="45.975086"
       ry="46.401291" />
    <path
       style="fill:#4ea7d4;fill-opacity:1;stroke:#4ea7d4;stroke-width:0.810685px;stroke-linecap:butt;stroke-linejoin:miter;stroke-opacity:1;paint-order:normal"
       d="m 294.31643,239.23501 -86.93596,82.93214 v -46.07341 l 52.08268,-51.28171 0.82018,-118.18833 33.21808,-30.047885 z"
       id="path75-3"
       sodipodi:nodetypes="ccccccc" />
  </g>
</svg>
