<?xml version="1.0" encoding="UTF-8" standalone="no"?>
<svg
   xmlns:osb="http://www.openswatchbook.org/uri/2009/osb"
   xmlns:dc="http://purl.org/dc/elements/1.1/"
   xmlns:cc="http://creativecommons.org/ns#"
   xmlns:rdf="http://www.w3.org/1999/02/22-rdf-syntax-ns#"
   xmlns:svg="http://www.w3.org/2000/svg"
   xmlns="http://www.w3.org/2000/svg"
   xmlns:sodipodi="http://sodipodi.sourceforge.net/DTD/sodipodi-0.dtd"
   xmlns:inkscape="http://www.inkscape.org/namespaces/inkscape"
   width="210mm"
   height="297mm"
   viewBox="0 0 210 297"
   version="1.1"
   id="svg20"
   inkscape:version="1.0.1 (3bc2e813f5, 2020-09-07)"
   sodipodi:docname="logo.svg"
   inkscape:export-filename="C:\Users\ivanc\Desktop\logo nazara\Logos vectorizados\bitmap.png"
   inkscape:export-xdpi="100"
   inkscape:export-ydpi="100">
  <defs
     id="defs14">
    <linearGradient
       id="linearGradient2896"
       osb:paint="solid">
      <stop
         style="stop-color:#0000eb;stop-opacity:1;"
         offset="0"
         id="stop2894" />
    </linearGradient>
    <linearGradient
       id="linearGradient2890"
       osb:paint="solid">
      <stop
         style="stop-color:#afecda;stop-opacity:1;"
         offset="0"
         id="stop2888" />
    </linearGradient>
    <linearGradient
       id="linearGradient966"
       osb:paint="solid">
      <stop
         style="stop-color:#7e9b6e;stop-opacity:1;"
         offset="0"
         id="stop964" />
    </linearGradient>
  </defs>
  <sodipodi:namedview
     id="base"
     pagecolor="#ffffff"
     bordercolor="#666666"
     borderopacity="1.0"
     inkscape:pageopacity="0.0"
     inkscape:pageshadow="2"
     inkscape:zoom="256"
     inkscape:cx="307.88867"
     inkscape:cy="596.95703"
     inkscape:document-units="mm"
     inkscape:current-layer="layer1"
     inkscape:document-rotation="0"
     showgrid="false"
     inkscape:window-width="1920"
     inkscape:window-height="1057"
     inkscape:window-x="-8"
     inkscape:window-y="-8"
     inkscape:window-maximized="1" />
  <metadata
     id="metadata17">
    <rdf:RDF>
      <cc:Work
         rdf:about="">
        <dc:format>image/svg+xml</dc:format>
        <dc:type
           rdf:resource="http://purl.org/dc/dcmitype/StillImage" />
        <dc:title></dc:title>
      </cc:Work>
    </rdf:RDF>
  </metadata>
  <g
     inkscape:label="Capa 1"
     inkscape:groupmode="layer"
     id="layer1">
    <path
       style="fill:#4ea7d4;fill-opacity:1;stroke:#4ea7d4;stroke-width:0.264583px;stroke-linecap:butt;stroke-linejoin:miter;stroke-opacity:1"
       d="M 69.369454,161.48891 C 96.88612,188.87328 96.88612,188.87328 96.88612,188.87328 V 173.65974 L 80.085079,156.72641 79.820496,117.70037 69.104871,107.77849 Z"
       id="path75"
       sodipodi:nodetypes="ccccccc" />
    <path
       style="fill:none;stroke-width:0.132292"
       d="M 88.358853,180.24508 C 83.85719,175.7564 80.2591,172.19769 80.3631,172.33685 c 0.165314,0.22121 0.16414,0.24485 -0.0093,0.18799 -0.10914,-0.0358 -0.270004,-0.20741 -0.357478,-0.38142 -0.08747,-0.17401 -2.487541,-2.64346 -5.333487,-5.48764 l -5.174448,-5.17126 -0.04602,-0.78576 c -0.02532,-0.43217 -0.08714,-12.30506 -0.137396,-26.3842 -0.08922,-24.9964 -0.0855,-25.60193 0.158205,-25.7469 0.218657,-0.13007 0.560451,0.13783 2.758903,2.16246 1.380133,1.27101 2.866517,2.64803 3.30308,3.06005 0.436562,0.41202 1.546918,1.44996 2.467459,2.30654 l 1.673709,1.5574 0.0768,0.88882 c 0.04224,0.48885 0.112328,9.28272 0.155754,19.54194 l 0.07896,18.65313 8.390065,8.41337 8.390067,8.41336 v 7.35461 c 0,4.04503 -0.0482,7.38439 -0.107109,7.4208 -0.05891,0.0364 -3.790291,-3.60637 -8.291957,-8.09506 z"
       id="path77" />
    <ellipse
       style="mix-blend-mode:normal;fill:none;fill-opacity:1;fill-rule:nonzero;stroke:#4ea7d4;stroke-width:7.06056;stroke-miterlimit:4;stroke-dasharray:none;stroke-opacity:1"
       id="path133"
       cx="105.61733"
       cy="138.20558"
       rx="14.924932"
       ry="15.321808" />
    <path
       style="fill:#4ea7d4;fill-opacity:1;stroke:#4ea7d4;stroke-width:0.265421px;stroke-linecap:butt;stroke-linejoin:miter;stroke-opacity:1;paint-order:normal"
       d="m 142.39446,161.55506 -28.22209,27.38437 v -15.21354 l 16.90764,-16.93333 0.26626,-39.02604 10.78361,-9.92188 z"
       id="path75-3"
       sodipodi:nodetypes="ccccccc" />
  </g>
</svg>
